<?xml version="1.0" encoding="UTF-8" standalone="no"?>
<!DOCTYPE svg PUBLIC "-//W3C//DTD SVG 1.1//EN" "http://www.w3.org/Graphics/SVG/1.1/DTD/svg11.dtd">
<svg width="100%" height="100%" viewBox="0 0 4478 4478" version="1.1" xmlns="http://www.w3.org/2000/svg" xmlns:xlink="http://www.w3.org/1999/xlink" xml:space="preserve" xmlns:serif="http://www.serif.com/" style="fill-rule:evenodd;clip-rule:evenodd;stroke-linejoin:round;stroke-miterlimit:2;">
    <g transform="matrix(1,0,0,1,-9011.242917,-11.1375)">
        <g transform="matrix(4.166667,0,0,4.166667,9000,0)">
            <g transform="matrix(1,0,0,1,507.5773,735.861)">
                <path d="M0,-391.722C-244.304,-358.732 -204.065,34.342 61.156,0.79C309.004,-30.565 271.696,-428.411 0,-391.722M-45.934,-733.188L110.779,-733.188L117.495,-726.472L117.495,-569.751C117.495,-565.871 129.112,-553.097 133.741,-550.175C140.109,-546.157 217.231,-514.421 221.969,-514.796C251.014,-517.098 321.593,-615.789 352.565,-630.358L466.9,-516.018C466.9,-499.171 353.638,-414.348 351.343,-385.416C350.967,-380.678 382.702,-303.552 386.721,-297.184C389.641,-292.555 402.415,-280.938 406.295,-280.938L563.008,-280.938L569.725,-274.221L569.725,-117.501L563.008,-110.784L406.295,-110.784C384.448,-110.784 363.119,-24.867 351.335,-6.309C353.696,22.819 452.292,93.263 466.9,124.296L352.565,238.637C335.719,238.637 250.899,125.37 221.969,123.074C217.231,122.698 140.109,154.435 133.741,158.454C129.112,161.375 117.495,174.149 117.495,178.029L117.495,334.75L110.779,341.466L-45.934,341.466L-52.65,334.75L-52.65,173.551C-52.65,169.717 -60.754,161.549 -64.821,158.857C-84.222,146.012 -134.101,136.611 -157.124,123.074C-186.173,125.379 -256.744,224.065 -287.72,238.637L-402.054,124.296C-402.054,107.797 -290.867,23.496 -286.49,-6.309C-298.274,-24.867 -319.602,-110.784 -341.45,-110.784L-498.163,-110.784L-504.879,-117.501L-504.879,-274.221L-498.163,-280.938L-341.45,-280.938C-319.602,-280.938 -298.274,-366.855 -286.49,-385.413C-288.851,-414.541 -387.447,-484.985 -402.054,-516.018L-287.72,-630.358C-271.221,-630.358 -186.924,-519.166 -157.12,-514.789C-138.563,-526.573 -52.65,-547.903 -52.65,-569.751L-52.65,-726.472L-45.934,-733.188Z" style="fill-rule:nonzero;"/>
            </g>
        </g>
    </g>
</svg>
