<?xml version="1.0" encoding="UTF-8" standalone="no"?>
<!DOCTYPE svg PUBLIC "-//W3C//DTD SVG 1.1//EN" "http://www.w3.org/Graphics/SVG/1.1/DTD/svg11.dtd">
<svg width="100%" height="100%" viewBox="0 0 4149 4500" version="1.1" xmlns="http://www.w3.org/2000/svg" xmlns:xlink="http://www.w3.org/1999/xlink" xml:space="preserve" xmlns:serif="http://www.serif.com/" style="fill-rule:evenodd;clip-rule:evenodd;stroke-linejoin:round;stroke-miterlimit:2;">
    <g transform="matrix(1,0,0,1,-27158.788333,-15187.5)">
        <g transform="matrix(1,0,0,1,0,354.166667)">
            <g id="Background" transform="matrix(4.173828,0,0,4.173828,27077,14944.833333)">
                <g transform="matrix(1.419869,0,0,1.419869,-216.901239,-213.325325)">
                    <path d="M229.959,466.528C231.175,451.461 238.352,362.552 303.455,292.46C369.672,221.17 430.188,209.415 469.561,200.765C476.492,199.242 473.445,196.483 472.698,189.482C467.603,141.739 520.02,117.282 555.817,140.005C586.314,159.365 577.393,197.632 578.29,199.624C580.67,204.907 660.094,206.275 733.407,278.593C821.32,365.315 821.859,480.749 818.64,482.655C815.974,484.235 249.609,483.552 232.516,483.073C228.489,482.96 229.684,476.355 229.959,466.528Z" style="fill:rgb(33,33,33);"/>
                </g>
                <g transform="matrix(1.419869,0,0,1.419869,-216.901239,-213.325325)">
                    <path d="M526.503,623.914C630.453,623.322 647.236,621.555 657.524,626.452C677.684,636.047 686.969,666.102 670.01,686.069C655.065,703.663 637,699.712 555.499,700.296C517.642,700.568 506.453,699.288 503.883,712.592C499.807,733.681 525.634,730.969 539.504,730.801C646.74,729.5 649.435,732.079 669.29,720.16C687.457,709.255 776.383,612.87 808.536,584.541C835.831,560.491 858.242,581.036 863.19,590.661C874.916,613.472 854.238,631.152 836.706,650.683C701.665,801.121 691.828,833.078 630.456,842.168C606.619,845.699 372.443,842.689 348.48,844.332C346.11,844.494 344.159,846.943 327.653,863.651C303.735,887.861 300.022,892.1 297.545,890.437C294.987,888.721 232.173,825.235 221.068,813.923C180.686,772.788 165.919,759.006 166.584,756.532C167.103,754.598 253.329,669.158 272.806,648.793C333.933,584.88 398.941,598.777 460.668,622.043C473.109,626.732 473.521,624.291 526.503,623.914Z" style="fill:rgb(33,33,33);"/>
                </g>
                <g transform="matrix(1.419869,0,0,1.419869,-216.901239,-213.325325)">
                    <path d="M854.888,524.489C854.056,541.642 836.362,556.898 809.502,556.868C624.5,556.868 439.499,556.867 254.498,556.867C245.621,556.86 212.272,559.996 197.966,536.231C195.414,531.993 188.239,512.016 211.501,511.805C213.416,511.788 831.757,511.641 838.493,511.808C853.092,512.172 854.265,519.579 854.888,524.489Z" style="fill:rgb(34,33,34);"/>
                </g>
            </g>
        </g>
    </g>
</svg>
