<?xml version="1.0" encoding="UTF-8" standalone="no"?>
<!DOCTYPE svg PUBLIC "-//W3C//DTD SVG 1.1//EN" "http://www.w3.org/Graphics/SVG/1.1/DTD/svg11.dtd">
<svg width="100%" height="100%" viewBox="0 0 4507 2895" version="1.1" xmlns="http://www.w3.org/2000/svg" xmlns:xlink="http://www.w3.org/1999/xlink" xml:space="preserve" xmlns:serif="http://www.serif.com/" style="fill-rule:evenodd;clip-rule:evenodd;stroke-linejoin:round;stroke-miterlimit:2;">
    <g transform="matrix(1,0,0,1,3.17125,-6667.666667)">
        <g transform="matrix(4.166667,0,0,4.166667,0,5062.5)">
            <g transform="matrix(1,0,0,1,895.7339,483.474)">
                <path d="M0,498.292C0,488.011 -8.337,479.673 -18.662,479.673C-28.943,479.673 -37.28,488.011 -37.28,498.292L-37.28,525.248C-37.28,535.572 -28.943,543.91 -18.662,543.91C-8.337,543.91 0,535.572 0,525.248L0,498.292ZM-686.599,498.292C-686.599,488.011 -694.936,479.673 -705.26,479.673C-715.542,479.673 -723.922,488.011 -723.922,498.292L-723.922,525.248C-723.922,535.572 -715.542,543.91 -705.26,543.91C-694.936,543.91 -686.599,535.572 -686.599,525.248L-686.599,498.292ZM101.996,493.108C99.922,479.846 95.689,467.016 89.425,455.137L185.023,455.137L185.023,493.108L101.996,493.108ZM-18.612,596.526L-18.655,596.526C-52.912,596.526 -83.841,575.834 -96.974,544.169C-110.106,512.504 -102.849,476.044 -78.571,451.767C-54.337,427.533 -17.877,420.275 13.831,433.407C45.496,446.539 66.145,477.427 66.145,511.726C66.102,558.553 28.173,596.482 -18.654,596.525L-18.612,596.526ZM-705.211,596.526L-705.254,596.526C-739.554,596.526 -770.44,575.834 -783.573,544.169C-796.705,512.504 -789.448,476.044 -765.213,451.767C-740.935,427.533 -704.475,420.275 -672.811,433.407C-641.103,446.539 -620.454,477.427 -620.454,511.726C-620.497,558.553 -658.425,596.482 -705.253,596.525L-705.211,596.526ZM-896.495,455.227L-813.338,455.227C-819.602,467.063 -823.836,479.894 -825.909,493.156L-896.495,493.156L-896.495,455.184L-896.495,455.227ZM-691.391,-98.234L-875.89,-98.234C-887.25,-98.234 -896.495,-88.99 -896.495,-77.585L-896.495,417.906L-783.098,417.906L-783.141,417.906C-737.999,380.367 -672.509,380.367 -627.367,417.906L-222.381,417.906L-222.381,-77.585C-222.424,-88.989 -231.626,-98.234 -243.03,-98.234L-427.491,-98.234L-427.491,209.942C-427.535,216.94 -431.466,223.377 -437.73,226.574C-443.95,229.727 -451.467,229.166 -457.169,225.019L-559.463,150.673L-661.8,225.019L-661.757,225.019C-667.459,229.166 -674.933,229.771 -681.196,226.574C-687.46,223.377 -691.391,216.94 -691.391,209.942L-691.391,-98.234ZM-654.061,-98.234L-464.856,-98.234L-464.856,173.315L-548.531,112.535C-555.054,107.783 -563.91,107.783 -570.477,112.535L-654.066,173.359L-654.061,-98.234ZM-30.398,62.252L-30.398,62.295C-23.659,62.424 -18.216,67.867 -18.13,74.65L-18.13,86.961L-185.096,86.961L-185.096,62.252L-30.398,62.252ZM185.028,326.458L185.028,308.746C185.071,260.321 165.976,213.839 131.936,179.413L-77.529,179.413L-77.529,326.463L185.028,326.458ZM-597.164,455.238L-222.369,455.238L-222.369,493.21L-584.59,493.167C-586.663,479.905 -590.897,467.075 -597.161,455.238L-597.164,455.238ZM-139.262,493.167L-185.095,493.167L-185.095,455.195L-126.734,455.195L-126.734,455.238C-132.955,467.075 -137.232,479.905 -139.262,493.167M59.233,417.915C14.091,380.376 -51.399,380.376 -96.497,417.915L-185.097,417.915L-185.097,124.292L0.614,124.292C27.916,124.292 54.915,130.383 79.58,142.09L-96.155,142.09C-101.08,142.09 -105.832,144.034 -109.331,147.533C-112.83,151.032 -114.817,155.741 -114.817,160.708L-114.817,345.037C-114.817,355.318 -106.48,363.656 -96.198,363.656L185.028,363.656L185.028,417.826L59.233,417.915Z"/>
            </g>
        </g>
    </g>
</svg>
