<?xml version="1.0" encoding="UTF-8" standalone="no"?>
<!DOCTYPE svg PUBLIC "-//W3C//DTD SVG 1.1//EN" "http://www.w3.org/Graphics/SVG/1.1/DTD/svg11.dtd">
<svg width="100%" height="100%" viewBox="0 0 4500 4500" version="1.1" xmlns="http://www.w3.org/2000/svg" xmlns:xlink="http://www.w3.org/1999/xlink" xml:space="preserve" xmlns:serif="http://www.serif.com/" style="fill-rule:evenodd;clip-rule:evenodd;stroke-linejoin:round;stroke-miterlimit:2;">
    <g transform="matrix(1,0,0,1,-45000,0)">
        <g id="Page-6" serif:id="Page 6" transform="matrix(4.166667,0,0,4.166667,45000,0)">
            <rect x="0" y="0" width="1080" height="1080" style="fill:none;"/>
            <clipPath id="_clip1">
                <rect x="0" y="0" width="1080" height="1080"/>
            </clipPath>
            <g clip-path="url(#_clip1)">
                <g id="Layer-1" serif:id="Layer 1">
                    <g transform="matrix(1,0,0,1,899.2047,1099.5949)">
                        <path d="M0,-1098.195C1.12,-1097.918 8.563,-1091.734 4.345,-1089.497L-101.809,-981.154L-73.006,-862.793C-67.709,-851.45 -52.612,-849.977 -41.38,-846.39C-25.583,-841.345 43.503,-821.331 54.695,-824.142L165.653,-931.674C184.818,-903.985 173.364,-858.754 163.605,-828.705C133.76,-736.811 38.745,-680.382 -56.21,-691.335C-79.451,-694.015 -106.26,-713.793 -126.427,-695.231L-501.25,-318.505C-509.5,-300.543 -492.37,-267.083 -490.465,-246.294C-478.552,-116.295 -606.121,3.15 -734.519,-31.691L-625.485,-145.821L-655.74,-267.462L-779.162,-300.183C-800.574,-294.928 -859.331,-220.708 -882.719,-202.489C-887.075,-199.095 -888.288,-194.031 -895.789,-195.976C-920.839,-333.351 -804.418,-447.323 -667.519,-431.915C-646.604,-429.561 -622.639,-413.518 -605.695,-423.482L-233.338,-795.158L-220.054,-815.824C-252.419,-908.442 -227.837,-1001.139 -150.017,-1060.587C-135.911,-1071.363 -80.364,-1098.195 -65.389,-1098.195C-49.112,-1098.195 -12.711,-1101.345 0,-1098.195" style="fill-rule:nonzero;"/>
                    </g>
                    <g transform="matrix(1,0,0,1,734.4572,935.6728)">
                        <path d="M0,-228.18C-38.257,-219.389 -35.046,-172.336 -14.022,-145.87C37.833,-80.594 118.702,-26.231 173.44,38.068C218.767,67.857 267.183,12.504 236.682,-29.847C173.943,-78.491 109.061,-177.243 47.05,-220.37C32.64,-230.391 17.216,-232.136 0,-228.18M-1.608,-283.167C15.79,-265.691 41.022,-264.227 62.57,-274.845C73.628,-280.293 80.603,-294.973 92.732,-288.399L321.408,-58.037C395.928,49.133 284.843,183.831 165.724,133.418C141.57,123.196 102.883,84.08 81.806,64.438C23.149,9.775 -29.897,-51.491 -88.237,-106.578C-94.781,-118.764 -80.17,-125.772 -74.747,-136.881C-51.438,-184.633 -93.606,-229.061 -142.797,-213.991C-154.576,-210.382 -162.238,-194.548 -178.671,-199.102C-182.82,-200.252 -220.734,-232.833 -208.234,-240.207L-31.359,-412.011C-22.837,-403.093 -0.21,-386.977 1.432,-375.59C3.968,-358 -10.304,-355.443 -14.23,-343.266C-20.477,-323.892 -16.074,-297.698 -1.608,-283.167" style="fill-rule:nonzero;"/>
                    </g>
                    <g transform="matrix(1,0,0,1,267.8441,487.0223)">
                        <path d="M0,-278.153L217.371,-60.692C220.769,-55.976 219.585,-52.549 217.371,-47.732C211.545,-35.05 174.389,-9.651 164.916,4.836L-63.687,-221.108C-67.488,-233.845 -19.481,-271.678 -9.507,-282.989L0,-278.153Z" style="fill-rule:nonzero;"/>
                    </g>
                    <g transform="matrix(1,0,0,1,190.2917,108.0244)">
                        <path d="M0,-14.143L-3.616,0.911L-93.043,86.086L-186.554,-47.492C-173.549,-60.281 -146.744,-100.229 -128.203,-97.94L0,-14.143Z" style="fill-rule:nonzero;"/>
                    </g>
                    <g transform="matrix(1,0,0,1,125.446,155.0209)">
                        <path d="M0,65.301C-1.352,58.51 0.692,55.186 4.129,49.821C20.231,24.685 63.243,2.504 79.267,-25.583L91.716,-24.596L112.749,22.848C111.785,26.61 63.619,76.045 59.055,78.763C38.71,90.884 20.626,66.168 0,65.301" style="fill-rule:nonzero;"/>
                    </g>
                    <g transform="matrix(-0.78598,0.618252,0.618252,0.78598,984.856234,878.977038)">
                        <path d="M94.371,-258.223C81.87,-248.184 67.028,-22.666 58.448,10.178C73.305,45.517 87.987,27.522 94.371,-1.004C110.96,-75.133 107.228,-164.629 122.655,-240.315C123.448,-254.553 106.345,-267.839 94.371,-258.223" style="fill-rule:nonzero;"/>
                    </g>
                </g>
            </g>
        </g>
    </g>
</svg>
