<?xml version="1.0" encoding="UTF-8" standalone="no"?>
<!DOCTYPE svg PUBLIC "-//W3C//DTD SVG 1.1//EN" "http://www.w3.org/Graphics/SVG/1.1/DTD/svg11.dtd">
<svg width="100%" height="100%" viewBox="0 0 3068 2345" version="1.1" xmlns="http://www.w3.org/2000/svg" xmlns:xlink="http://www.w3.org/1999/xlink" xml:space="preserve" xmlns:serif="http://www.serif.com/" style="fill-rule:evenodd;clip-rule:evenodd;stroke-linejoin:round;stroke-miterlimit:2;">
    <g transform="matrix(1,0,0,1,-36715.287145,-6943.019969)">
        <g transform="matrix(4.166667,0,0,4.166667,36000,5062.5)">
            <g transform="matrix(1,0,0,1,530.1368,1019.3794)">
                <path d="M0,-567.695C154.594,-576.061 183.912,-436.571 267.869,-345.858C286.942,-325.25 312.553,-308.109 331.505,-287.323C436.856,-171.775 349.009,-16.832 202.987,-5.941C121.957,0.102 54.65,-39.862 -25.467,-28.205C-103.296,-16.88 -149.911,8.366 -233.059,-15.552C-324.752,-41.928 -383.104,-138.778 -348.272,-231.326C-327.053,-287.702 -275.922,-315.096 -238.832,-358.589C-163.204,-447.273 -137.932,-560.23 0,-567.695" style="fill-rule:nonzero;"/>
            </g>
        </g>
    </g>
</svg>
