<?xml version="1.0" encoding="UTF-8" standalone="no"?>
<!DOCTYPE svg PUBLIC "-//W3C//DTD SVG 1.1//EN" "http://www.w3.org/Graphics/SVG/1.1/DTD/svg11.dtd">
<svg width="100%" height="100%" viewBox="0 0 4515 4501" version="1.1" xmlns="http://www.w3.org/2000/svg" xmlns:xlink="http://www.w3.org/1999/xlink" xml:space="preserve" xmlns:serif="http://www.serif.com/" style="fill-rule:evenodd;clip-rule:evenodd;stroke-linejoin:round;stroke-miterlimit:2;">
    <g transform="matrix(1,0,0,1,-44992.60375,-10124.99875)">
        <g transform="matrix(4.166667,0,0,4.166667,45000,10125)">
            <g transform="matrix(1,0,0,1,1044.4109,116.3827)">
                <path d="M0,870.017L-593.897,870.017C-579.105,847.407 -568.947,822.107 -564.006,795.572L0,795.572L0,870.017ZM-765.957,925.851C-858.817,925.851 -934.094,850.858 -934.094,758.349C-934.094,665.84 -858.817,590.847 -765.957,590.847C-673.098,590.847 -597.82,665.84 -597.82,758.349C-597.82,850.858 -673.098,925.851 -765.957,925.851M-1008.822,-41.937L-1008.822,-79.16L-747.275,-79.16L-747.275,554.555L-784.639,554.555L-784.639,-23.326C-784.639,-33.605 -793.003,-41.937 -803.321,-41.937L-1008.822,-41.937ZM18.682,758.349L-18.682,758.349L-18.682,218.621L-242.865,218.621L-242.865,497.791C-242.85,504.758 -246.743,511.15 -252.953,514.355C-258.965,517.286 -266.091,516.789 -271.635,513.052L-336.274,468.199L-400.166,513.052C-405.709,516.789 -412.836,517.286 -418.848,514.355C-425.348,511.359 -429.557,504.925 -429.683,497.791L-429.683,218.621L-653.866,218.621L-653.866,586.939C-671.127,575.676 -690.032,567.138 -709.912,561.628L-709.912,-97.771C-709.912,-108.05 -718.276,-116.383 -728.594,-116.383L-1027.504,-116.383C-1037.821,-116.383 -1046.186,-108.05 -1046.186,-97.771L-1046.186,-23.326C-1046.186,-13.047 -1037.821,-4.715 -1027.504,-4.715L-822.003,-4.715L-822.003,561.628C-931.334,591.973 -995.271,704.869 -964.81,813.786C-934.349,922.704 -821.026,986.4 -711.695,956.054C-679.317,947.067 -649.646,930.306 -625.283,907.24L18.682,907.24C29,907.24 37.364,898.907 37.364,888.628L37.364,776.96C37.364,766.682 29,758.349 18.682,758.349" style="fill-rule:nonzero;"/>
            </g>
        </g>
    </g>
</svg>
