<?xml version="1.0" encoding="UTF-8" standalone="no"?>
<!DOCTYPE svg PUBLIC "-//W3C//DTD SVG 1.1//EN" "http://www.w3.org/Graphics/SVG/1.1/DTD/svg11.dtd">
<svg width="100%" height="100%" viewBox="0 0 4018 4475" version="1.1" xmlns="http://www.w3.org/2000/svg" xmlns:xlink="http://www.w3.org/1999/xlink" xml:space="preserve" xmlns:serif="http://www.serif.com/" style="fill-rule:evenodd;clip-rule:evenodd;stroke-linejoin:round;stroke-miterlimit:2;">
    <g transform="matrix(1,0,0,1,-27241.215,-18.40125)">
        <g transform="matrix(4.166667,0,0,4.166667,27000,0)">
            <g transform="matrix(1,0,0,1,539.9976,860.4433)">
                <path d="M0,-638.223C244.227,-638.223 367.335,-341.566 194.467,-168.698C21.647,4.17 -275.058,-118.936 -275.058,-363.165C-275.058,-515.032 -151.915,-638.223 0,-638.223M154.764,-517.929C240.259,-432.434 240.259,-293.853 154.764,-208.401C17.217,-70.854 -218.88,-168.787 -218.88,-363.165C-218.88,-557.536 17.217,-655.428 154.764,-517.929M110.66,-456.006C136.805,-482.15 176.512,-442.443 150.368,-416.298L4.404,-270.334C-6.54,-259.39 -24.359,-259.39 -35.304,-270.334L-122.624,-357.654C-148.768,-383.798 -109.061,-423.506 -82.916,-397.361L-15.427,-329.873L110.66,-456.006ZM0.002,-856.027L-482.106,-736.02L-482.106,-389.459C-482.106,-86.624 -230.156,106.634 0.002,217.804C230.161,106.679 482.111,-86.576 482.111,-389.459L482.111,-736.02L0.002,-856.027Z"/>
            </g>
        </g>
    </g>
</svg>
