<?xml version="1.0" encoding="UTF-8" standalone="no"?>
<!DOCTYPE svg PUBLIC "-//W3C//DTD SVG 1.1//EN" "http://www.w3.org/Graphics/SVG/1.1/DTD/svg11.dtd">
<svg width="100%" height="100%" viewBox="0 0 3910 4486" version="1.1" xmlns="http://www.w3.org/2000/svg" xmlns:xlink="http://www.w3.org/1999/xlink" xml:space="preserve" xmlns:serif="http://www.serif.com/" style="fill-rule:evenodd;clip-rule:evenodd;stroke-linejoin:round;stroke-miterlimit:2;">
    <g transform="matrix(1,0,0,1,-18295.470833,-7.4875)">
        <g transform="matrix(4.166667,0,0,4.166667,18000,0)">
            <g transform="matrix(1,0,0,1,379.394,388.2725)">
                <path d="M0,-341.158L160.556,26.052L332.49,-367.114C279.036,-340.677 220.207,-326.877 160.556,-326.829C100.904,-326.926 42.074,-340.725 -11.428,-367.21L0,-341.158Z" style="fill-rule:nonzero;"/>
            </g>
        </g>
        <g transform="matrix(4.166667,0,0,4.166667,18000,0)">
            <g transform="matrix(1,0,0,1,0,458.872)">
                <rect x="70.913" y="260.983" width="449.477" height="99.162"/>
            </g>
        </g>
        <g transform="matrix(4.166667,0,0,4.166667,18000,0)">
            <g transform="matrix(0,-1,-1,0,717.6794,344.3835)">
                <path d="M-336.736,197.091L-122.335,197.091L197.091,336.736L-336.724,336.736L-336.736,197.091Z" style="fill-rule:nonzero;"/>
            </g>
        </g>
        <g transform="matrix(4.166667,0,0,4.166667,18000,0)">
            <g transform="matrix(1,0,0,1,1008.9863,173.1461)">
                <path d="M0,398.982C0,384.263 -5.907,370.173 -16.365,359.81L-58.974,317.783L-58.974,317.832C-76.841,300.158 -86.912,276.143 -86.96,251.062L-86.96,-43.908C-86.96,-66.519 -99.113,-87.388 -118.723,-98.573L-136.929,-108.984L-136.929,507.966L0.1,507.966L0,398.982Z" style="fill-rule:nonzero;"/>
            </g>
        </g>
        <g transform="matrix(4.166667,0,0,4.166667,18000,0)">
            <g transform="matrix(1,0,0,1,342.2083,624.2297)">
                <path d="M0,-565.538L-24.887,-622.43L-94.562,-582.678L-94.562,56.892L0,56.892L0,-565.538Z" style="fill-rule:nonzero;"/>
            </g>
        </g>
        <g transform="matrix(4.166667,0,0,4.166667,18000,0)">
            <g transform="matrix(1,0,0,1,833.2216,640.837)">
                <path d="M0,-598.755L-70.643,-639.04L-94.514,-584.374L-94.514,40.285L0,40.285L0,-598.755Z" style="fill-rule:nonzero;"/>
            </g>
        </g>
        <g transform="matrix(4.166667,0,0,4.166667,18000,0)">
            <g transform="matrix(-0.400627,0.916241,0.916241,0.400627,847.061924,584.899036)">
                <path d="M-344.103,-310.995L6.999,-310.995L203.442,-225.1L147.089,-96.221L-344.103,-310.995Z" style="fill-rule:nonzero;"/>
            </g>
        </g>
        <g transform="matrix(4.166667,0,0,4.166667,18000,0)">
            <g transform="matrix(1,0,0,1,907.6935,972.8927)">
                <path d="M0,-9.786L-247.087,-9.786C-257.788,-9.786 -266.455,-18.453 -266.455,-29.154C-266.455,-39.854 -257.788,-48.521 -247.087,-48.521L0,-48.521C10.701,-48.521 19.368,-39.854 19.368,-29.154C19.368,-18.453 10.701,-9.786 0,-9.786M101.293,50.447L101.293,-115.141L-348.37,-115.141L-348.37,50.447C-348.322,80.758 -323.773,105.306 -293.463,105.355L46.341,105.355C76.699,105.355 101.296,80.758 101.296,50.447L101.293,50.447Z" style="fill-rule:nonzero;"/>
            </g>
        </g>
        <g transform="matrix(4.166667,0,0,4.166667,18000,0)">
            <g transform="matrix(1,0,0,1,414.066,972.8927)">
                <path d="M0,-9.786L-247.223,-9.786C-257.924,-9.786 -266.591,-18.453 -266.591,-29.154C-266.591,-39.854 -257.924,-48.521 -247.223,-48.521L0,-48.521C10.701,-48.521 19.368,-39.854 19.368,-29.154C19.368,-18.453 10.701,-9.786 0,-9.786M106.522,50.447L106.522,-115.141L-343.14,-115.141L-343.14,50.447C-343.14,80.758 -318.543,105.355 -288.185,105.355L51.619,105.355C81.929,105.306 106.478,80.758 106.526,50.447L106.522,50.447Z" style="fill-rule:nonzero;"/>
            </g>
        </g>
        <g transform="matrix(4.166667,0,0,4.166667,18000,0)">
            <g transform="matrix(1,0,0,1,559.7574,819.0167)">
                <rect x="0" y="-99.162" width="449.229" height="99.162"/>
            </g>
        </g>
        <g transform="matrix(4.166667,0,0,4.166667,18000,0)">
            <g transform="matrix(1,0,0,1,208.9097,681.1146)">
                <path d="M0,-617.44L-19.223,-606.497C-38.784,-595.313 -50.937,-574.444 -50.985,-551.881L-50.985,-256.911C-51.034,-231.831 -61.105,-207.815 -78.923,-190.142L-121.532,-148.115L-121.532,-148.163C-131.99,-137.801 -137.897,-123.711 -137.946,-108.991L-137.946,0L0.051,0L0,-617.44Z" style="fill-rule:nonzero;"/>
            </g>
        </g>
    </g>
</svg>
