<svg width="66" height="77" viewBox="0 0 66 77" fill="none" xmlns="http://www.w3.org/2000/svg">
<g clip-path="url(#clip0_465_9331)">
<path d="M25.397 44.4438C24.2449 44.4438 23.0928 44.9687 22.2402 45.8772C21.3875 46.7857 20.9409 47.9717 21.0271 49.1123C21.1134 50.3085 21.692 51.4289 22.631 52.186C23.2958 52.7109 23.6207 53.5689 23.4836 54.4269L22.2808 62.3103H28.5082L27.3054 54.4269C27.1785 53.5689 27.4932 52.7109 28.1428 52.186C29.1833 51.3633 29.772 50.1318 29.772 48.7994C29.7771 46.397 27.8129 44.4438 25.397 44.4438Z" fill="#A1D301"/>
<path d="M35.7762 51.8431C35.3651 49.5619 36.5781 47.3462 38.7301 46.4378C42.6483 44.7823 45.8305 42.8998 49.4137 40.6085C49.8553 40.3208 50.3425 40.1239 50.8399 39.9877V35.7936C50.8399 35.0567 50.6267 34.335 50.2156 33.7243C50.0786 33.5123 49.9416 33.3508 49.7893 33.2146C49.0889 32.5433 48.1753 32.1799 47.211 32.1799H3.69486C1.65457 32.1799 0 33.8253 0 35.8542V50.7732C0 54.624 0.837435 58.3084 2.492 61.7454C3.06552 62.9062 3.67964 63.9509 4.34451 64.9351C4.78607 65.5963 5.2733 66.2423 5.79606 66.8782C6.82129 68.1097 7.96324 69.2453 9.19148 70.2648C13.739 73.9895 19.4843 76.0436 25.3819 76.0436C32.2539 76.0436 38.8468 73.2526 43.6278 68.3721C38.5575 62.5176 36.7913 57.5109 35.7762 51.8431ZM46.0234 34.446C46.9877 34.446 47.7642 35.2182 47.7642 36.1772C47.7642 37.1361 46.9877 37.9083 46.0234 37.9083C45.0591 37.9083 44.2825 37.1361 44.2825 36.1772C44.2825 35.2182 45.0591 34.446 46.0234 34.446ZM4.75561 37.9234C3.7913 37.9234 3.01476 37.1512 3.01476 36.1923C3.01476 35.2334 3.7913 34.4612 4.75561 34.4612C5.71993 34.4612 6.49646 35.2334 6.49646 36.1923C6.51169 37.1361 5.71993 37.9234 4.75561 37.9234ZM30.9445 61.9473C31.0561 62.6589 30.843 63.3655 30.3811 63.9156C29.9142 64.4657 29.229 64.7736 28.5134 64.7736H22.2859C21.5703 64.7736 20.8851 64.4607 20.4182 63.9257C19.9512 63.3756 19.7432 62.669 19.8548 61.9574L21.0577 54.0739C19.6163 52.9282 18.7027 51.1719 18.5657 49.3045C18.4388 47.4724 19.1189 45.6302 20.4436 44.2221C21.7581 42.814 23.5751 42.0065 25.4022 42.0065C29.1833 42.0065 32.2539 45.07 32.2539 48.82C32.2539 50.8741 31.3404 52.792 29.7467 54.0891L30.9394 61.9473H30.9445Z" fill="#A1D301"/>
<path d="M10.3794 19.2746C10.3794 11.0429 17.1194 4.34044 25.3974 4.34044C33.6753 4.34044 40.4153 11.0429 40.4153 19.2746V29.7219H44.7852V19.2746C44.7852 8.6405 36.081 0 25.4024 0C14.7239 0 6.00439 8.65564 6.00439 19.2746V29.7219H10.3895V19.2746H10.3794Z" fill="#A1D301"/>
<path d="M64.4572 48.6937C60.138 46.8616 56.5903 44.7116 53.3979 42.6675C53.0224 42.4152 52.5859 42.2839 52.119 42.2839C51.6165 42.2839 51.1394 42.4202 50.7537 42.6675C47.5613 44.7216 44.0136 46.8767 39.6945 48.7088C38.6083 49.1731 38.0044 50.2784 38.2023 51.4241C39.192 56.9405 40.9329 61.7957 46.2163 67.5493L46.2924 67.625C47.5054 68.9575 48.9113 70.3302 50.4492 71.698C51.3627 72.5055 52.7787 72.5055 53.7025 71.698C62.2697 64.0416 64.6855 58.4748 65.9595 51.4342C66.1523 50.2784 65.5382 49.158 64.4521 48.6937H64.4572ZM57.443 54.745L51.2054 60.9478C50.977 61.1749 50.6674 61.3062 50.3273 61.3062C49.9873 61.3062 49.6879 61.18 49.4493 60.9478L46.7289 58.2426C46.2518 57.7682 46.2518 56.9859 46.7289 56.5115C47.206 56.0371 47.9927 56.0371 48.4698 56.5115L50.3121 58.3436L55.6717 53.0139C56.1488 52.5395 56.9355 52.5395 57.4126 53.0139C57.9353 53.4883 57.9353 54.2605 57.443 54.745Z" fill="#A1D301"/>
</g>
<defs>
<clipPath id="clip0_465_9331">
<rect width="66" height="76.0435" fill="white"/>
</clipPath>
</defs>
</svg>
