<?xml version="1.0" encoding="UTF-8" standalone="no"?>
<!DOCTYPE svg PUBLIC "-//W3C//DTD SVG 1.1//EN" "http://www.w3.org/Graphics/SVG/1.1/DTD/svg11.dtd">
<svg width="100%" height="100%" viewBox="0 0 4961 4961" version="1.1" xmlns="http://www.w3.org/2000/svg" xmlns:xlink="http://www.w3.org/1999/xlink" xml:space="preserve" xmlns:serif="http://www.serif.com/" style="fill-rule:evenodd;clip-rule:evenodd;stroke-linejoin:round;stroke-miterlimit:2;">
    <g transform="matrix(1,0,0,1,-0.111014,0)">
        <g transform="matrix(11.685653,0,0,11.685653,2330.650957,3384.410582)">
            <path d="M0,-154.736C-96.504,-141.704 -80.609,13.566 24.158,0.313C122.062,-12.073 107.324,-169.229 0,-154.736M-18.145,-289.621L43.76,-289.621L46.413,-286.968L46.413,-225.06C46.413,-223.528 51.001,-218.482 52.83,-217.328C55.345,-215.74 85.81,-203.204 87.681,-203.352C99.155,-204.261 127.034,-243.246 139.269,-249.001L184.433,-203.835C184.433,-197.18 139.693,-163.673 138.786,-152.245C138.638,-150.373 151.174,-119.908 152.761,-117.392C153.915,-115.563 158.961,-110.974 160.493,-110.974L222.398,-110.974L225.051,-108.321L225.051,-46.414L222.398,-43.761L160.493,-43.761C151.863,-43.761 143.438,-9.822 138.783,-2.492C139.716,9.014 178.663,36.841 184.433,49.1L139.269,94.266C132.614,94.266 99.109,49.524 87.681,48.617C85.81,48.468 55.345,61.005 52.83,62.592C51.001,63.746 46.413,68.792 46.413,70.325L46.413,132.232L43.76,134.885L-18.145,134.885L-20.798,132.232L-20.798,68.556C-20.798,67.042 -23.999,63.815 -25.605,62.752C-33.269,57.678 -52.972,53.964 -62.066,48.617C-73.542,49.527 -101.418,88.51 -113.654,94.266L-158.818,49.1C-158.818,42.582 -114.897,9.282 -113.168,-2.492C-117.823,-9.822 -126.248,-43.761 -134.878,-43.761L-196.783,-43.761L-199.436,-46.414L-199.436,-108.321L-196.783,-110.974L-134.878,-110.974C-126.248,-110.974 -117.823,-144.913 -113.168,-152.244C-114.101,-163.75 -153.048,-191.576 -158.818,-203.835L-113.654,-249.001C-107.137,-249.001 -73.838,-205.078 -62.065,-203.349C-54.735,-208.004 -20.798,-216.43 -20.798,-225.06L-20.798,-286.968L-18.145,-289.621Z" style="fill:rgb(69,157,253);fill-rule:nonzero;"/>
        </g>
        <g transform="matrix(11.685653,0,0,11.685653,2413.494459,3394.470169)">
            <path d="M0,-134.245C21.958,-136.948 46.588,-122.505 55.939,-102.665C81.538,-48.356 16.924,2.703 -29.689,-34.721C-68.705,-66.046 -48.742,-128.245 0,-134.245" style="fill:rgb(69,157,253);fill-rule:nonzero;"/>
        </g>
    </g>
</svg>
