<?xml version="1.0" encoding="UTF-8" standalone="no"?>
<!DOCTYPE svg PUBLIC "-//W3C//DTD SVG 1.1//EN" "http://www.w3.org/Graphics/SVG/1.1/DTD/svg11.dtd">
<svg width="100%" height="100%" viewBox="0 0 4961 4961" version="1.1" xmlns="http://www.w3.org/2000/svg" xmlns:xlink="http://www.w3.org/1999/xlink" xml:space="preserve" xmlns:serif="http://www.serif.com/" style="fill-rule:evenodd;clip-rule:evenodd;stroke-linejoin:round;stroke-miterlimit:2;">
    <g transform="matrix(10.378162,0,0,10.378162,4515.332335,3075.208557)">
        <path d="M0,181.672L-392.173,181.672C-392.061,112.22 -346.59,42.692 -284.733,12.473C-259.2,0 -265.64,6.063 -243.997,15.07C-219.11,25.426 -191.745,27.549 -165.413,21.13C-151.233,17.673 -140.425,9.816 -127.166,4.903C-53.941,30.586 -0.872,103.526 0,181.672" style="fill:rgb(0,68,47);fill-rule:nonzero;"/>
    </g>
    <g transform="matrix(10.378162,0,0,10.378162,3588.492975,3383.278055)">
        <path d="M0,-127.552C2.422,-82.211 -29.992,-38.696 -72.251,-24.113C-142.124,0 -215.491,-54.474 -213.56,-127.552L0,-127.552Z" style="fill:rgb(0,68,47);fill-rule:nonzero;"/>
    </g>
    <g transform="matrix(10.378162,0,0,10.378162,1281.468138,226.165552)">
        <path d="M0,110.653C-6.397,108.658 0.106,83.39 1.899,77.609C13.036,41.694 41.874,12.964 76.66,0C79.571,2.122 79.487,55.498 81.037,64.568C85.921,93.155 125.682,102.496 143.554,79.48C157.565,61.438 147.409,21.375 155.289,0.027C190.925,14.613 218.44,41.962 229.135,79.549C230.277,83.562 236.982,110.653 231.033,110.653L0,110.653Z" style="fill:rgb(0,68,47);fill-rule:nonzero;"/>
    </g>
    <g transform="matrix(10.378082,0.040694,0.040694,-10.378082,1085.028651,1514.366493)">
        <path d="M-0.074,-0.526L271.787,-0.526C288.68,-10.109 283.981,-37.029 263.7,-37.905L5.492,-38.917C-15.802,-38.048 -20.66,-7.887 -0.074,-0.526" style="fill:rgb(0,68,47);fill-rule:nonzero;"/>
    </g>
    <g transform="matrix(10.378162,0,0,10.378162,2292.95801,1090.644615)">
        <path d="M0,-104.259C3.708,-105.35 32.492,-105.378 36.127,-104.279C40.429,-102.979 41.799,-97.417 42.943,-93.452C38.138,-74.73 46.625,-23.732 33.436,-10.647C21.576,1.119 0.366,-4.576 -2.862,-20.647C-6.04,-36.468 -7.436,-80.196 -5.334,-96.004C-4.83,-99.792 -4.197,-103.024 0,-104.259" style="fill:rgb(0,68,47);fill-rule:nonzero;"/>
    </g>
</svg>
