<svg width="20" height="20" viewBox="0 0 20 20" fill="none" xmlns="http://www.w3.org/2000/svg">
<path d="M16.6666 8.33317C16.6666 12.494 12.0508 16.8273 10.5008 18.1657C10.3564 18.2742 10.1806 18.333 9.99992 18.333C9.81925 18.333 9.64348 18.2742 9.49909 18.1657C7.94909 16.8273 3.33325 12.494 3.33325 8.33317C3.33325 6.56506 4.03563 4.86937 5.28587 3.61913C6.53612 2.36888 8.23181 1.6665 9.99992 1.6665C11.768 1.6665 13.4637 2.36888 14.714 3.61913C15.9642 4.86937 16.6666 6.56506 16.6666 8.33317Z" stroke="white" stroke-width="1.66667" stroke-linecap="round" stroke-linejoin="round"/>
<path d="M10 10.8335C11.3807 10.8335 12.5 9.71421 12.5 8.3335C12.5 6.95278 11.3807 5.8335 10 5.8335C8.61929 5.8335 7.5 6.95278 7.5 8.3335C7.5 9.71421 8.61929 10.8335 10 10.8335Z" stroke="white" stroke-width="1.66667" stroke-linecap="round" stroke-linejoin="round"/>
</svg>
