<?xml version="1.0" encoding="UTF-8" standalone="no"?>
<!DOCTYPE svg PUBLIC "-//W3C//DTD SVG 1.1//EN" "http://www.w3.org/Graphics/SVG/1.1/DTD/svg11.dtd">
<svg width="100%" height="100%" viewBox="0 0 20 20" version="1.1" xmlns="http://www.w3.org/2000/svg" xmlns:xlink="http://www.w3.org/1999/xlink" xml:space="preserve" xmlns:serif="http://www.serif.com/" style="fill-rule:evenodd;clip-rule:evenodd;stroke-linecap:round;stroke-linejoin:round;">
    <path d="M5,18.333L5,3.333C5,2.891 5.176,2.467 5.488,2.155C5.801,1.842 6.225,1.667 6.667,1.667L13.333,1.667C13.775,1.667 14.199,1.842 14.512,2.155C14.824,2.467 15,2.891 15,3.333L15,18.333L5,18.333Z" style="fill:none;fill-rule:nonzero;stroke:white;stroke-width:1.67px;"/>
    <path d="M5,10L3.333,10C2.891,10 2.467,10.176 2.155,10.488C1.842,10.801 1.667,11.225 1.667,11.667L1.667,16.667C1.667,17.109 1.842,17.533 2.155,17.845C2.467,18.158 2.891,18.333 3.333,18.333L5,18.333" style="fill:none;fill-rule:nonzero;stroke:white;stroke-width:1.67px;"/>
    <path d="M15,7.5L16.667,7.5C17.109,7.5 17.533,7.676 17.845,7.988C18.158,8.301 18.333,8.725 18.333,9.167L18.333,16.667C18.333,17.109 18.158,17.533 17.845,17.845C17.533,18.158 17.109,18.333 16.667,18.333L15,18.333" style="fill:none;fill-rule:nonzero;stroke:white;stroke-width:1.67px;"/>
    <path d="M8.333,5L11.667,5" style="fill:none;fill-rule:nonzero;stroke:white;stroke-width:1.67px;"/>
    <path d="M8.333,8.334L11.667,8.334" style="fill:none;fill-rule:nonzero;stroke:white;stroke-width:1.67px;"/>
    <path d="M8.333,11.666L11.667,11.666" style="fill:none;fill-rule:nonzero;stroke:white;stroke-width:1.67px;"/>
    <path d="M8.333,15L11.667,15" style="fill:none;fill-rule:nonzero;stroke:white;stroke-width:1.67px;"/>
</svg>
