<svg width="10" height="7" viewBox="0 0 10 7" fill="none" xmlns="http://www.w3.org/2000/svg">
<path d="M2.32224e-05 3.02654C2.32224e-05 2.6299 0.321265 2.30866 0.717902 2.30866H7.20293L6.01573 1.25518C5.7196 0.992265 5.6927 0.538198 5.95561 0.241168C6.09739 0.0814404 6.29482 -0.00022316 6.49222 -0.00022316C6.66182 -0.00022316 6.83232 0.059001 6.96871 0.18104L9.56915 2.48997C9.7226 2.62547 9.81054 2.82199 9.81054 3.02658C9.81054 3.23207 9.7226 3.4268 9.56915 3.56318L6.96871 5.87211C6.67257 6.13592 6.21942 6.109 5.95469 5.81289C5.69178 5.51675 5.7187 5.06271 6.01482 4.79887L7.20291 3.7445H0.717879C0.320346 3.7445 2.32224e-05 3.42318 2.32224e-05 3.02654Z" fill="white"/>
</svg>
