<svg width="21" height="22" viewBox="0 0 21 22" fill="none" xmlns="http://www.w3.org/2000/svg">
<path d="M10.108 21.5366C5.6806 21.5366 1.63888 18.7549 0.0478289 14.6144C-0.0939528 14.2447 0.0909016 13.8292 0.460615 13.6866C0.831224 13.5439 1.2467 13.7287 1.38848 14.0993C2.76681 17.6897 6.27098 20.1008 10.108 20.1008C15.2533 20.1008 19.4404 15.9137 19.4404 10.7684C19.4404 5.62309 15.2533 1.43596 10.108 1.43596C6.27098 1.43596 2.76681 3.84712 1.38848 7.43559C1.2458 7.8062 0.831224 7.99106 0.460615 7.84838C0.0900057 7.7066 -0.0939551 7.29023 0.0478289 6.92051C1.63883 2.78185 5.6806 0.00015831 10.108 0.00015831C16.0458 0.00015831 20.8762 4.83051 20.8762 10.7683C20.8762 16.7062 16.0468 21.5366 10.108 21.5366Z" fill="white"/>
</svg>
