<?xml version="1.0" encoding="UTF-8" standalone="no"?>
<!DOCTYPE svg PUBLIC "-//W3C//DTD SVG 1.1//EN" "http://www.w3.org/Graphics/SVG/1.1/DTD/svg11.dtd">
<svg width="100%" height="100%" viewBox="0 0 21 22" version="1.1" xmlns="http://www.w3.org/2000/svg" xmlns:xlink="http://www.w3.org/1999/xlink" xml:space="preserve" xmlns:serif="http://www.serif.com/" style="fill-rule:evenodd;clip-rule:evenodd;stroke-linejoin:round;stroke-miterlimit:2;">
    <path d="M10.108,21.537C5.681,21.537 1.639,18.755 0.048,14.614C-0.094,14.245 0.091,13.829 0.461,13.687C0.831,13.544 1.247,13.729 1.388,14.099C2.767,17.69 6.271,20.101 10.108,20.101C15.253,20.101 19.44,15.914 19.44,10.768C19.44,5.623 15.253,1.436 10.108,1.436C6.271,1.436 2.767,3.847 1.388,7.436C1.246,7.806 0.831,7.991 0.461,7.848C0.09,7.707 -0.094,7.29 0.048,6.921C1.639,2.782 5.681,0 10.108,0C16.046,0 20.876,4.831 20.876,10.768C20.876,16.706 16.047,21.537 10.108,21.537Z" style="fill:white;fill-rule:nonzero;"/>
    <g transform="matrix(1,0,0,1,5.594718,7.741635)">
        <path d="M0,3.027C0,2.63 0.321,2.309 0.718,2.309L7.203,2.309L6.016,1.255C5.72,0.992 5.693,0.538 5.956,0.241C6.097,0.081 6.295,-0 6.492,-0C6.662,-0 6.832,0.059 6.969,0.181L9.569,2.49C9.723,2.625 9.811,2.822 9.811,3.027C9.811,3.232 9.723,3.427 9.569,3.563L6.969,5.872C6.673,6.136 6.219,6.109 5.955,5.813C5.692,5.517 5.719,5.063 6.015,4.799L7.203,3.744L0.718,3.744C0.32,3.744 0,3.423 0,3.027Z" style="fill:white;fill-rule:nonzero;"/>
    </g>
</svg>
